<svg width="1400" height="960" viewBox="0 0 1400 960" xmlns="http://www.w3.org/2000/svg" role="img" aria-label="DryLake contained dl product mark v4">
  <rect width="1400" height="960" fill="#090a0a"/>
  <style>
    .label { font-family: "IBM Plex Mono", "Cascadia Mono", Consolas, monospace; font-size: 22px; font-weight: 700; letter-spacing: 0; fill: #f7f4ea; }
    .note { font-family: Helvetica, "Helvetica Neue", sans-serif; font-size: 18px; font-weight: 400; letter-spacing: 0; fill: #a6aca5; }
    .word { font-family: "Cascadia Mono", "IBM Plex Mono", Consolas, monospace; font-size: 82px; font-weight: 800; letter-spacing: 0; fill: #f7f4ea; }
    .mark { font-family: "Cascadia Mono", "IBM Plex Mono", Consolas, monospace; font-size: 198px; font-weight: 800; letter-spacing: 0; }
    .panel { fill: #111414; stroke: #28302b; stroke-width: 2; }
    .crackDark { fill: none; stroke: #151008; stroke-width: 5; stroke-linecap: square; stroke-linejoin: miter; }
    .crackCut { fill: none; stroke: #090a0a; stroke-width: 7; stroke-linecap: square; stroke-linejoin: miter; }
  </style>

  <text x="72" y="95" class="word">drylake</text>
  <rect x="76" y="130" width="390" height="18" fill="#ff5a1f"/>
  <text x="72" y="190" class="note">Contained v4: visible gap, smaller glyphs, and the l stays inside the icon border.</text>

  <defs>
    <clipPath id="containedDClipA">
      <text x="28" y="214" class="mark">d</text>
    </clipPath>
    <clipPath id="containedDClipB">
      <text x="18" y="214" class="mark">d</text>
    </clipPath>
    <clipPath id="containedDClipC">
      <text x="28" y="214" class="mark">d</text>
    </clipPath>
  </defs>

  <g transform="translate(70 250)">
    <rect class="panel" x="0" y="0" width="390" height="540" rx="8"/>
    <text class="label" x="34" y="54">A. Contained Gap</text>
    <text class="note" x="34" y="86">Balanced and inside the border</text>
    <g transform="translate(63 135)">
      <rect x="0" y="0" width="264" height="264" rx="30" fill="#151008" stroke="#ff5a1f" stroke-width="12"/>
      <text x="28" y="214" class="mark" fill="#f7f4ea">d</text>
      <text x="150" y="214" class="mark" fill="#ff5a1f">l</text>
      <g clip-path="url(#containedDClipA)">
        <path class="crackDark" d="M64 86l32 25 32-10 31 22"/>
        <path class="crackDark" d="M96 111l-16 40 28 25-7 38"/>
        <path class="crackDark" d="M130 101l10 38 31 20"/>
        <path class="crackDark" d="M78 166l39-4 29 28 31-8"/>
      </g>
    </g>
    <text x="34" y="464" class="word" style="font-size:48px">drylake</text>
    <rect x="36" y="490" width="190" height="12" fill="#ff5a1f"/>
  </g>

  <g transform="translate(505 250)">
    <rect class="panel" x="0" y="0" width="390" height="540" rx="8"/>
    <text class="label" x="34" y="54">B. Wider Gap In Bounds</text>
    <text class="note" x="34" y="86">More separation, still contained</text>
    <g transform="translate(63 135)">
      <rect x="0" y="0" width="264" height="264" rx="30" fill="#151008" stroke="#ff5a1f" stroke-width="12"/>
      <text x="18" y="214" class="mark" fill="#f7f4ea">d</text>
      <text x="158" y="214" class="mark" fill="#ff5a1f">l</text>
      <g clip-path="url(#containedDClipB)">
        <path class="crackDark" d="M54 86l32 25 32-10 31 22"/>
        <path class="crackDark" d="M86 111l-16 40 28 25-7 38"/>
        <path class="crackDark" d="M120 101l10 38 31 20"/>
        <path class="crackDark" d="M68 166l39-4 29 28 31-8"/>
      </g>
    </g>
    <text x="34" y="464" class="word" style="font-size:48px">drylake</text>
    <rect x="36" y="490" width="190" height="12" fill="#ff5a1f"/>
  </g>

  <g transform="translate(940 250)">
    <rect class="panel" x="0" y="0" width="390" height="540" rx="8"/>
    <text class="label" x="34" y="54">C. Mono Contained</text>
    <text class="note" x="34" y="86">White-only extension icon</text>
    <g transform="translate(63 135)">
      <rect x="0" y="0" width="264" height="264" rx="30" fill="#090a0a" stroke="#2b332e" stroke-width="10"/>
      <text x="28" y="214" class="mark" fill="#f7f4ea">d</text>
      <text x="150" y="214" class="mark" fill="#f7f4ea">l</text>
      <g clip-path="url(#containedDClipC)">
        <path class="crackCut" d="M64 86l32 25 32-10 31 22"/>
        <path class="crackCut" d="M96 111l-16 40 28 25-7 38"/>
        <path class="crackCut" d="M130 101l10 38 31 20"/>
        <path class="crackCut" d="M78 166l39-4 29 28 31-8"/>
      </g>
    </g>
    <text x="34" y="464" class="word" style="font-size:48px">drylake</text>
    <rect x="36" y="490" width="190" height="12" fill="#f7f4ea"/>
  </g>

  <g transform="translate(92 845)">
    <text class="label" x="0" y="0">Small-size read:</text>
    <g transform="translate(220 -62) scale(.32)">
      <rect x="0" y="0" width="264" height="264" rx="30" fill="#151008" stroke="#ff5a1f" stroke-width="12"/>
      <text x="28" y="214" class="mark" fill="#f7f4ea">d</text>
      <text x="150" y="214" class="mark" fill="#ff5a1f">l</text>
    </g>
    <g transform="translate(342 -47) scale(.24)">
      <rect x="0" y="0" width="264" height="264" rx="30" fill="#151008" stroke="#ff5a1f" stroke-width="12"/>
      <text x="28" y="214" class="mark" fill="#f7f4ea">d</text>
      <text x="150" y="214" class="mark" fill="#ff5a1f">l</text>
    </g>
    <g transform="translate(444 -36) scale(.17)">
      <rect x="0" y="0" width="264" height="264" rx="30" fill="#151008" stroke="#ff5a1f" stroke-width="12"/>
      <text x="28" y="214" class="mark" fill="#f7f4ea">d</text>
      <text x="150" y="214" class="mark" fill="#ff5a1f">l</text>
    </g>
    <text class="note" x="540" y="0">The descender is now contained inside the rounded square.</text>
  </g>
</svg>
