<svg width="1200" height="720" viewBox="0 0 1200 720" fill="none" xmlns="http://www.w3.org/2000/svg">
  <rect width="1200" height="720" rx="48" fill="#FFF7ED"/>
  <rect x="86" y="96" width="392" height="528" rx="34" fill="#111827"/>
  <rect x="118" y="132" width="328" height="72" rx="24" fill="#1F2937"/>
  <rect x="146" y="158" width="110" height="16" rx="8" fill="#FDBA74"/>
  <rect x="118" y="236" width="328" height="132" rx="28" fill="#F97316" fill-opacity="0.16"/>
  <rect x="146" y="270" width="132" height="14" rx="7" fill="#FB923C"/>
  <rect x="146" y="296" width="222" height="12" rx="6" fill="#FED7AA"/>
  <rect x="146" y="320" width="198" height="12" rx="6" fill="#FED7AA"/>
  <rect x="118" y="394" width="328" height="188" rx="28" fill="#1F2937"/>
  <rect x="146" y="430" width="148" height="14" rx="7" fill="#FFFFFF"/>
  <rect x="146" y="456" width="224" height="12" rx="6" fill="#9CA3AF"/>
  <rect x="146" y="482" width="196" height="12" rx="6" fill="#9CA3AF"/>
  <rect x="146" y="508" width="168" height="12" rx="6" fill="#9CA3AF"/>
  <rect x="520" y="136" width="594" height="448" rx="34" fill="white" stroke="#FED7AA" stroke-width="2"/>
  <rect x="560" y="176" width="182" height="16" rx="8" fill="#C2410C"/>
  <rect x="560" y="214" width="384" height="18" rx="9" fill="#111827"/>
  <rect x="560" y="246" width="452" height="14" rx="7" fill="#6B7280"/>
  <rect x="560" y="302" width="514" height="92" rx="24" fill="#FFF7ED"/>
  <rect x="588" y="330" width="132" height="14" rx="7" fill="#111827"/>
  <rect x="588" y="356" width="218" height="12" rx="6" fill="#6B7280"/>
  <rect x="560" y="422" width="514" height="92" rx="24" fill="#111827"/>
  <rect x="588" y="450" width="142" height="14" rx="7" fill="#FFFFFF"/>
  <rect x="588" y="476" width="198" height="12" rx="6" fill="#9CA3AF"/>
  <path d="M456 362H520" stroke="#F97316" stroke-width="12" stroke-linecap="round"/>
  <path d="M488 330L520 362L488 394" stroke="#F97316" stroke-width="12" stroke-linecap="round" stroke-linejoin="round"/>
  <text x="560" y="612" fill="#111827" font-family="Helvetica, Segoe UI, system-ui, sans-serif" font-size="28" font-weight="700">Connect in VS Code → Sign up in browser → Return to editor</text>
</svg>
