<svg width="1400" height="500" viewBox="0 0 1400 500" xmlns="http://www.w3.org/2000/svg" font-family="Inter, -apple-system, Segoe UI, sans-serif">
  <defs>
    <marker id="arrow" markerWidth="12" markerHeight="12" refX="10" refY="6" orient="auto">
      <path d="M0 0 L12 6 L0 12 Z" fill="#111111"/>
    </marker>
  </defs>
  <rect width="1400" height="500" rx="28" fill="#f7f4ea"/>
  <rect x="40" y="36" width="1320" height="104" rx="8" fill="#ffffff" stroke="#111111" stroke-width="5"/>
  <text x="60" y="70" fill="#005caf" font-size="12" letter-spacing="3" font-weight="800">PIPELINE VIEW</text>
  <text x="60" y="102" fill="#111111" font-size="25" font-weight="900">DryLake Visual Planner</text>
  <text x="60" y="124" fill="#4b463f" font-size="14" font-weight="600">Plan phases, pick an agent, run the next step.</text>
  <rect x="1030" y="62" width="270" height="48" rx="4" fill="#ffd60a" stroke="#111111" stroke-width="4"/>
  <text x="1060" y="93" fill="#111111" font-size="14" font-weight="900">VISUAL AGENT ORCHESTRATION</text>

  <g transform="translate(60 182)">
    <g>
      <rect x="0" y="0" width="220" height="170" rx="6" fill="#ffffff" stroke="#111111" stroke-width="4"/>
      <text x="16" y="28" fill="#005caf" font-size="10" letter-spacing="2" font-weight="900">PHASE 01 · DONE</text>
      <text x="16" y="58" fill="#111111" font-size="17" font-weight="900">Discovery</text>
      <rect x="16" y="76" width="138" height="26" rx="4" fill="#36b979" stroke="#111111" stroke-width="3"/>
      <text x="30" y="94" fill="#111111" font-size="12" font-weight="800">Copilot</text>
      <text x="16" y="126" fill="#4b463f" font-size="12">Repo scan · entry points</text>
      <text x="16" y="150" fill="#111111" font-size="12" font-weight="800">6 / 6 complete</text>
    </g>
    <line x1="232" y1="85" x2="282" y2="85" stroke="#111111" stroke-width="4" marker-end="url(#arrow)"/>

    <g transform="translate(300 0)">
      <rect x="0" y="0" width="220" height="170" rx="6" fill="#ffffff" stroke="#111111" stroke-width="4"/>
      <text x="16" y="28" fill="#005caf" font-size="10" letter-spacing="2" font-weight="900">PHASE 02 · DONE</text>
      <text x="16" y="58" fill="#111111" font-size="17" font-weight="900">Scope</text>
      <rect x="16" y="76" width="100" height="26" rx="4" fill="#ffd60a" stroke="#111111" stroke-width="3"/>
      <text x="30" y="94" fill="#111111" font-size="12" font-weight="800">Codex</text>
      <text x="16" y="126" fill="#4b463f" font-size="12">Contracts + plan</text>
      <text x="16" y="150" fill="#111111" font-size="12" font-weight="800">4 / 4 complete</text>
    </g>
    <line x1="532" y1="85" x2="582" y2="85" stroke="#111111" stroke-width="4" marker-end="url(#arrow)"/>

    <g transform="translate(600 -12)">
      <rect x="0" y="0" width="250" height="194" rx="6" fill="#fff7ed" stroke="#ff5a1f" stroke-width="6"/>
      <text x="18" y="34" fill="#ff5a1f" font-size="10" letter-spacing="2" font-weight="900">PHASE 03 · ACTIVE</text>
      <text x="18" y="66" fill="#111111" font-size="18" font-weight="900">Webhook work</text>
      <rect x="18" y="84" width="132" height="26" rx="4" fill="#ff5a1f" stroke="#111111" stroke-width="3"/>
      <text x="32" y="102" fill="#ffffff" font-size="12" font-weight="900">Claude Code</text>
      <text x="18" y="134" fill="#4b463f" font-size="12">✓ Add route</text>
      <text x="18" y="156" fill="#111111" font-size="12" font-weight="900">● Verify signature</text>
      <text x="18" y="178" fill="#4b463f" font-size="12">○ Refund handler</text>
    </g>
    <line x1="862" y1="85" x2="912" y2="85" stroke="#111111" stroke-width="4" marker-end="url(#arrow)"/>

    <g transform="translate(930 0)">
      <rect x="0" y="0" width="220" height="170" rx="6" fill="#ffffff" stroke="#111111" stroke-width="4"/>
      <text x="16" y="28" fill="#005caf" font-size="10" letter-spacing="2" font-weight="900">PHASE 04 · NEXT</text>
      <text x="16" y="58" fill="#111111" font-size="17" font-weight="900">Tests</text>
      <rect x="16" y="76" width="86" height="26" rx="4" fill="#e6007e" stroke="#111111" stroke-width="3"/>
      <text x="30" y="94" fill="#ffffff" font-size="12" font-weight="900">Cline</text>
      <text x="16" y="126" fill="#4b463f" font-size="12">Unit + E2E</text>
      <text x="16" y="150" fill="#4b463f" font-size="12">0 / 3 complete</text>
    </g>
  </g>

  <g transform="translate(60 410)">
    <text x="0" y="0" fill="#005caf" font-size="10" letter-spacing="2" font-weight="900">INSTALL TARGETS</text>
    <g font-size="12" font-weight="900">
      <rect x="0" y="16" width="122" height="32" rx="4" fill="#005caf" stroke="#111111" stroke-width="3"/><text x="15" y="37" fill="#ffffff">Claude Code</text>
      <rect x="134" y="16" width="76" height="32" rx="4" fill="#36b979" stroke="#111111" stroke-width="3"/><text x="152" y="37" fill="#111111">Codex</text>
      <rect x="222" y="16" width="92" height="32" rx="4" fill="#e6007e" stroke="#111111" stroke-width="3"/><text x="240" y="37" fill="#ffffff">Gemini</text>
      <rect x="326" y="16" width="98" height="32" rx="4" fill="#f7f4ea" stroke="#111111" stroke-width="3"/><text x="344" y="37" fill="#111111">Cursor</text>
      <rect x="436" y="16" width="76" height="32" rx="4" fill="#ff5a1f" stroke="#111111" stroke-width="3"/><text x="454" y="37" fill="#ffffff">Cline</text>
      <rect x="524" y="16" width="102" height="32" rx="4" fill="#ffd60a" stroke="#111111" stroke-width="3"/><text x="540" y="37" fill="#111111">Continue</text>
      <rect x="638" y="16" width="72" height="32" rx="4" fill="#ffffff" stroke="#111111" stroke-width="3"/><text x="656" y="37" fill="#111111">Aider</text>
      <rect x="722" y="16" width="160" height="32" rx="4" fill="#36b979" stroke="#111111" stroke-width="3"/><text x="740" y="37" fill="#111111">GitHub Copilot</text>
      <rect x="894" y="16" width="96" height="32" rx="4" fill="#e6007e" stroke="#111111" stroke-width="3"/><text x="912" y="37" fill="#ffffff">Augment</text>
    </g>
  </g>
</svg>
