<svg width="1400" height="620" viewBox="0 0 1400 620" xmlns="http://www.w3.org/2000/svg" font-family="Inter, Segoe UI, Arial, sans-serif">
  <defs>
    <linearGradient id="surface" x1="0" y1="0" x2="1" y2="1">
      <stop offset="0%" stop-color="#090a0a"/>
      <stop offset="100%" stop-color="#141716"/>
    </linearGradient>
    <marker id="arrow" markerWidth="18" markerHeight="18" refX="15" refY="9" orient="auto">
      <path d="M0 0 L18 9 L0 18 Z" fill="#3f3f46"/>
    </marker>
    <filter id="softShadow" x="-20%" y="-20%" width="140%" height="140%">
      <feDropShadow dx="0" dy="18" stdDeviation="24" flood-color="#000000" flood-opacity="0.38"/>
    </filter>
  </defs>

  <rect width="1400" height="620" rx="28" fill="url(#surface)"/>
  <rect x="22" y="22" width="1356" height="576" rx="24" fill="none" stroke="#27272a" stroke-width="2"/>

  <g filter="url(#softShadow)">
    <rect x="46" y="42" width="1308" height="102" rx="10" fill="#111414" stroke="#27272a"/>
    <text x="76" y="76" fill="#fb923c" font-size="12" letter-spacing="2.6" font-weight="800">PIPELINE VIEW</text>
    <text x="76" y="114" fill="#f4f4f5" font-size="31" font-weight="760">Plan, launch, validate, repeat</text>
    <text x="76" y="136" fill="#a1a1aa" font-size="14" font-weight="520">Each phase keeps one agent assignment and one clear handoff. Manual validation controls keep status honest.</text>

    <rect x="892" y="70" width="126" height="38" rx="6" fill="#34d399" stroke="#34d399"/>
    <text x="927" y="94" fill="#08110d" font-size="12" font-weight="800">Pipeline</text>
    <rect x="1032" y="70" width="116" height="38" rx="6" fill="#090a0a" stroke="#3f3f46"/>
    <text x="1066" y="94" fill="#d4d4d8" font-size="12" font-weight="760">Kanban</text>
    <rect x="1162" y="70" width="132" height="38" rx="6" fill="#090a0a" stroke="#fb923c"/>
    <text x="1190" y="94" fill="#fed7aa" font-size="12" font-weight="760">Review run</text>
  </g>

  <g transform="translate(54 220)">
    <g>
      <rect x="0" y="0" width="240" height="260" rx="10" fill="#111414" stroke="#27272a"/>
      <text x="18" y="34" fill="#6ee7b7" font-size="10" letter-spacing="1.6" font-weight="800">PHASE 01 . VALIDATED</text>
      <text x="18" y="68" fill="#a1a1aa" font-size="20" font-weight="760" text-decoration="line-through">Repository scan</text>
      <text x="18" y="98" fill="#71717a" font-size="11" letter-spacing="1.3" font-weight="800">AGENT</text>
      <rect x="18" y="112" width="180" height="34" rx="6" fill="#090a0a" stroke="#3f3f46"/>
      <text x="34" y="134" fill="#d4d4d8" font-size="13" font-weight="760">Copilot Chat</text>
      <text x="18" y="174" fill="#a1a1aa" font-size="13">[x] Map entry points</text>
      <text x="18" y="198" fill="#a1a1aa" font-size="13">[x] List constraints</text>
      <text x="18" y="230" fill="#6ee7b7" font-size="13" font-weight="760">6 / 6 complete</text>
    </g>

    <line x1="260" y1="130" x2="306" y2="130" stroke="#3f3f46" stroke-width="4" marker-end="url(#arrow)"/>

    <g transform="translate(326 0)">
      <rect x="0" y="0" width="240" height="260" rx="10" fill="#111414" stroke="#27272a"/>
      <text x="18" y="34" fill="#6ee7b7" font-size="10" letter-spacing="1.6" font-weight="800">PHASE 02 . VALIDATED</text>
      <text x="18" y="68" fill="#a1a1aa" font-size="20" font-weight="760" text-decoration="line-through">UI alignment</text>
      <text x="18" y="98" fill="#71717a" font-size="11" letter-spacing="1.3" font-weight="800">AGENT</text>
      <rect x="18" y="112" width="180" height="34" rx="6" fill="#090a0a" stroke="#3f3f46"/>
      <text x="34" y="134" fill="#d4d4d8" font-size="13" font-weight="760">Cursor</text>
      <text x="18" y="174" fill="#a1a1aa" font-size="13">[x] Header and app pages</text>
      <text x="18" y="198" fill="#a1a1aa" font-size="13">[x] Extension sidebar</text>
      <text x="18" y="230" fill="#6ee7b7" font-size="13" font-weight="760">8 / 8 complete</text>
    </g>

    <line x1="586" y1="130" x2="632" y2="130" stroke="#3f3f46" stroke-width="4" marker-end="url(#arrow)"/>

    <g transform="translate(652 -26)">
      <rect x="0" y="0" width="316" height="312" rx="12" fill="#17251d" stroke="#34d399" stroke-width="2"/>
      <text x="20" y="40" fill="#6ee7b7" font-size="10" letter-spacing="1.6" font-weight="800">PHASE 03 . RUNNING</text>
      <text x="20" y="76" fill="#f4f4f5" font-size="22" font-weight="760">Auth and packaging</text>
      <rect x="20" y="94" width="78" height="26" rx="13" fill="#34d399"/>
      <text x="43" y="112" fill="#08110d" font-size="11" font-weight="800">active</text>
      <text x="20" y="148" fill="#71717a" font-size="11" letter-spacing="1.3" font-weight="800">AGENT</text>
      <rect x="20" y="162" width="214" height="34" rx="6" fill="#090a0a" stroke="#3f3f46"/>
      <text x="36" y="184" fill="#f4f4f5" font-size="13" font-weight="760">Claude Code</text>
      <text x="20" y="226" fill="#a1a1aa" font-size="13">[x] Dark theme auth fix</text>
      <text x="20" y="250" fill="#f4f4f5" font-size="13" font-weight="760">[ ] Package marketplace VSIX</text>
      <rect x="20" y="276" width="128" height="36" rx="6" fill="#090a0a" stroke="#fb923c"/>
      <text x="54" y="299" fill="#fed7aa" font-size="13" font-weight="760">Terminal</text>
      <rect x="160" y="276" width="136" height="36" rx="6" fill="#34d399"/>
      <text x="190" y="299" fill="#08110d" font-size="13" font-weight="800">Mark done</text>
    </g>

    <line x1="988" y1="130" x2="1034" y2="130" stroke="#3f3f46" stroke-width="4" marker-end="url(#arrow)"/>

    <g transform="translate(1054 0)">
      <rect x="0" y="0" width="240" height="260" rx="10" fill="#111414" stroke="#27272a"/>
      <text x="18" y="34" fill="#fb923c" font-size="10" letter-spacing="1.6" font-weight="800">PHASE 04 . PENDING</text>
      <text x="18" y="68" fill="#f4f4f5" font-size="20" font-weight="760">Production review</text>
      <text x="18" y="98" fill="#71717a" font-size="11" letter-spacing="1.3" font-weight="800">AGENT</text>
      <rect x="18" y="112" width="180" height="34" rx="6" fill="#090a0a" stroke="#3f3f46"/>
      <text x="34" y="134" fill="#d4d4d8" font-size="13" font-weight="760">OpenAI Codex</text>
      <text x="18" y="174" fill="#d4d4d8" font-size="13">[ ] Smoke production</text>
      <text x="18" y="198" fill="#d4d4d8" font-size="13">[ ] Record notes</text>
      <text x="18" y="230" fill="#a1a1aa" font-size="13">0 / 2 complete</text>
    </g>
  </g>

  <rect x="376" y="558" width="648" height="34" rx="17" fill="#090a0a" stroke="#27272a"/>
  <text x="700" y="580" fill="#a1a1aa" font-size="14" font-weight="700" text-anchor="middle">Autopilot only advances when enabled. Manual mode leaves the next phase pending.</text>
</svg>
