<svg width="1400" height="860" viewBox="0 0 1400 860" xmlns="http://www.w3.org/2000/svg" font-family="Segoe UI, Arial, sans-serif">
  <defs>
    <linearGradient id="paper" x1="0" y1="0" x2="1" y2="1">
      <stop offset="0%" stop-color="#f7f4ea"/>
      <stop offset="100%" stop-color="#efe7d4"/>
    </linearGradient>
    <linearGradient id="headerFill" x1="0" y1="0" x2="1" y2="0">
      <stop offset="0%" stop-color="#ffffff"/>
      <stop offset="100%" stop-color="#fff7ed"/>
    </linearGradient>
  </defs>

  <rect width="1400" height="860" rx="28" fill="url(#paper)"/>
  <rect x="22" y="22" width="1356" height="816" rx="24" fill="none" stroke="#111111" stroke-width="4"/>

  <rect x="38" y="34" width="1324" height="92" rx="12" fill="url(#headerFill)" stroke="#111111" stroke-width="5"/>
  <text x="64" y="65" fill="#005caf" font-size="12" letter-spacing="2.4" font-weight="900">DRYLAKE BUILD SESSION</text>
  <text x="64" y="100" fill="#111111" font-size="30" font-weight="900">DryLake Control Room</text>
  <text x="64" y="121" fill="#4b463f" font-size="14" font-weight="700">Visual kanban and pipeline planner for coding-agent work.</text>
  <rect x="882" y="56" width="118" height="36" rx="8" fill="#ffffff" stroke="#111111" stroke-width="3"/>
  <text x="918" y="79" fill="#111111" font-size="12" font-weight="900">Pipeline</text>
  <rect x="1012" y="56" width="106" height="36" rx="8" fill="#ffd60a" stroke="#111111" stroke-width="3"/>
  <text x="1047" y="79" fill="#111111" font-size="12" font-weight="900">Kanban</text>
  <rect x="1130" y="56" width="130" height="36" rx="8" fill="#ffffff" stroke="#111111" stroke-width="3"/>
  <text x="1154" y="79" fill="#111111" font-size="12" font-weight="900">Autopilot</text>

  <rect x="38" y="146" width="1324" height="56" rx="10" fill="#ffffff" stroke="#005caf" stroke-width="4"/>
  <text x="64" y="168" fill="#005caf" font-size="10" letter-spacing="1.8" font-weight="900">PLANNING AI</text>
  <text x="64" y="187" fill="#111111" font-size="15" font-weight="900">Xupra AI</text>
  <text x="176" y="187" fill="#4b463f" font-size="13" font-weight="700">Live planning chat updates the runbook and kanban as you talk.</text>

  <rect x="38" y="220" width="1324" height="154" rx="12" fill="#ffffff" stroke="#111111" stroke-width="4"/>
  <text x="62" y="246" fill="#005caf" font-size="10" letter-spacing="1.9" font-weight="900">PLANNING CHAT</text>
  <rect x="62" y="260" width="1220" height="42" rx="8" fill="#f7f4ea" stroke="#111111" stroke-width="3"/>
  <text x="84" y="286" fill="#111111" font-size="14" font-weight="700">Add rollback notes and split verification into a separate phase.</text>
  <rect x="1286" y="260" width="50" height="42" rx="8" fill="#ff5a1f" stroke="#111111" stroke-width="3"/>
  <text x="1298" y="286" fill="#ffffff" font-size="13" font-weight="900">Send</text>

  <rect x="62" y="318" width="540" height="38" rx="8" fill="#f7f4ea" stroke="#005caf" stroke-width="3"/>
  <text x="78" y="341" fill="#005caf" font-size="10" letter-spacing="1.5" font-weight="900">YOU</text>
  <text x="126" y="341" fill="#111111" font-size="13" font-weight="700">Use Codex for docs and Copilot for the discovery pass.</text>

  <rect x="620" y="318" width="716" height="38" rx="8" fill="#fff7ed" stroke="#ff5a1f" stroke-width="3"/>
  <text x="636" y="341" fill="#ff5a1f" font-size="10" letter-spacing="1.5" font-weight="900">XUPRA AI</text>
  <text x="716" y="341" fill="#111111" font-size="13" font-weight="700">Updated the phase agents and added a validation handoff before Done.</text>

  <g transform="translate(38 388)">
    <g>
      <rect x="0" y="0" width="420" height="42" rx="8" fill="#ffd60a" stroke="#111111" stroke-width="4"/>
      <text x="16" y="27" fill="#111111" font-size="12" letter-spacing="2.2" font-weight="900">TO DO</text>
      <rect x="372" y="9" width="28" height="24" rx="6" fill="#ffffff" stroke="#111111" stroke-width="3"/>
      <text x="383" y="26" fill="#111111" font-size="12" font-weight="900">2</text>

      <rect x="0" y="56" width="420" height="286" rx="10" fill="#ffffff" stroke="#111111" stroke-width="4"/>
      <text x="18" y="84" fill="#005caf" font-size="10" letter-spacing="1.6" font-weight="900">PHASE 04</text>
      <text x="18" y="112" fill="#111111" font-size="18" font-weight="900">Validation pass</text>
      <rect x="18" y="126" width="86" height="24" rx="6" fill="#ffd60a" stroke="#111111" stroke-width="3"/>
      <text x="35" y="143" fill="#111111" font-size="11" font-weight="900">pending</text>
      <text x="18" y="172" fill="#4b463f" font-size="11" letter-spacing="1.2" font-weight="900">OBJECTIVE</text>
      <text x="18" y="191" fill="#4b463f" font-size="12">Run tests, review logs,</text>
      <text x="18" y="208" fill="#4b463f" font-size="12">and close the ticket cleanly.</text>
      <text x="18" y="234" fill="#4b463f" font-size="11" letter-spacing="1.2" font-weight="900">AGENT</text>
      <rect x="18" y="242" width="206" height="32" rx="6" fill="#f7f4ea" stroke="#111111" stroke-width="3"/>
      <text x="34" y="263" fill="#111111" font-size="12" font-weight="900">OpenAI Codex</text>
      <text x="202" y="263" fill="#111111" font-size="12" font-weight="900">v</text>
      <text x="18" y="296" fill="#4b463f" font-size="11">0 / 3 complete</text>
      <text x="18" y="316" fill="#111111" font-size="12">[ ] Run unit tests</text>
      <text x="18" y="336" fill="#111111" font-size="12">[ ] Regression sweep</text>
      <text x="18" y="356" fill="#111111" font-size="12">[ ] Release notes</text>
      <rect x="18" y="372" width="230" height="34" rx="6" fill="#ffd60a" stroke="#111111" stroke-width="3"/>
      <text x="86" y="394" fill="#111111" font-size="12" font-weight="900">Run Handoff</text>
      <rect x="262" y="372" width="140" height="34" rx="6" fill="#ffffff" stroke="#111111" stroke-width="3"/>
      <text x="306" y="394" fill="#111111" font-size="12" font-weight="900">Export v</text>
    </g>

    <g transform="translate(452 0)">
      <rect x="0" y="0" width="420" height="42" rx="8" fill="#ff5a1f" stroke="#111111" stroke-width="4"/>
      <text x="16" y="27" fill="#ffffff" font-size="12" letter-spacing="2.2" font-weight="900">IN PROGRESS</text>
      <rect x="372" y="9" width="28" height="24" rx="6" fill="#ffffff" stroke="#111111" stroke-width="3"/>
      <text x="383" y="26" fill="#111111" font-size="12" font-weight="900">1</text>

      <rect x="0" y="56" width="420" height="340" rx="10" fill="#fff7ed" stroke="#ff5a1f" stroke-width="6"/>
      <text x="20" y="86" fill="#ff5a1f" font-size="10" letter-spacing="1.6" font-weight="900">PHASE 03 . ACTIVE</text>
      <text x="20" y="116" fill="#111111" font-size="19" font-weight="900">Webhook rollout</text>
      <rect x="20" y="130" width="74" height="24" rx="6" fill="#ff5a1f" stroke="#111111" stroke-width="3"/>
      <text x="38" y="147" fill="#ffffff" font-size="11" font-weight="900">active</text>
      <text x="20" y="174" fill="#4b463f" font-size="11" letter-spacing="1.2" font-weight="900">OBJECTIVE</text>
      <text x="20" y="193" fill="#4b463f" font-size="12">Ship the live chat fix,</text>
      <text x="20" y="210" fill="#4b463f" font-size="12">verify auth and provider flow.</text>
      <text x="20" y="236" fill="#4b463f" font-size="11" letter-spacing="1.2" font-weight="900">AGENT</text>
      <rect x="20" y="244" width="210" height="32" rx="6" fill="#f7f4ea" stroke="#111111" stroke-width="3"/>
      <text x="36" y="265" fill="#111111" font-size="12" font-weight="900">Claude Code</text>
      <text x="209" y="265" fill="#111111" font-size="12" font-weight="900">v</text>
      <text x="20" y="298" fill="#4b463f" font-size="11">1 / 3 complete</text>
      <text x="20" y="316" fill="#4b463f" font-size="12">[x] Add route handling</text>
      <text x="20" y="336" fill="#111111" font-size="12" font-weight="900">[ ] Verify provider key</text>
      <text x="20" y="356" fill="#111111" font-size="12">[ ] Production smoke test</text>
      <rect x="20" y="372" width="230" height="34" rx="6" fill="#ffd60a" stroke="#111111" stroke-width="3"/>
      <text x="88" y="394" fill="#111111" font-size="12" font-weight="900">Run Handoff</text>
      <rect x="264" y="372" width="140" height="34" rx="6" fill="#ffffff" stroke="#111111" stroke-width="3"/>
      <text x="308" y="394" fill="#111111" font-size="12" font-weight="900">Export v</text>
    </g>

    <g transform="translate(904 0)">
      <rect x="0" y="0" width="420" height="42" rx="8" fill="#36b979" stroke="#111111" stroke-width="4"/>
      <text x="16" y="27" fill="#111111" font-size="12" letter-spacing="2.2" font-weight="900">DONE</text>
      <rect x="372" y="9" width="28" height="24" rx="6" fill="#ffffff" stroke="#111111" stroke-width="3"/>
      <text x="383" y="26" fill="#111111" font-size="12" font-weight="900">2</text>

      <rect x="0" y="56" width="420" height="140" rx="10" fill="#ffffff" stroke="#36b979" stroke-width="4"/>
      <text x="18" y="84" fill="#005caf" font-size="10" letter-spacing="1.6" font-weight="900">PHASE 02</text>
      <text x="18" y="112" fill="#4b463f" font-size="18" font-weight="900" text-decoration="line-through">API contracts</text>
      <text x="18" y="138" fill="#4b463f" font-size="11" letter-spacing="1.2" font-weight="900">AGENT</text>
      <rect x="18" y="146" width="196" height="30" rx="6" fill="#f7f4ea" stroke="#111111" stroke-width="3"/>
      <text x="34" y="166" fill="#111111" font-size="12" font-weight="900">Cursor CLI</text>
      <text x="197" y="166" fill="#111111" font-size="12" font-weight="900">v</text>
      <text x="248" y="166" fill="#4b463f" font-size="12">12 / 12 complete</text>

      <rect x="0" y="214" width="420" height="140" rx="10" fill="#ffffff" stroke="#36b979" stroke-width="4"/>
      <text x="18" y="242" fill="#005caf" font-size="10" letter-spacing="1.6" font-weight="900">PHASE 01</text>
      <text x="18" y="270" fill="#4b463f" font-size="18" font-weight="900" text-decoration="line-through">Discovery</text>
      <text x="18" y="296" fill="#4b463f" font-size="11" letter-spacing="1.2" font-weight="900">AGENT</text>
      <rect x="18" y="304" width="196" height="30" rx="6" fill="#f7f4ea" stroke="#111111" stroke-width="3"/>
      <text x="34" y="324" fill="#111111" font-size="12" font-weight="900">Copilot Chat</text>
      <text x="197" y="324" fill="#111111" font-size="12" font-weight="900">v</text>
      <text x="248" y="324" fill="#4b463f" font-size="12">6 / 6 complete</text>
    </g>
  </g>

  <text x="700" y="824" fill="#4b463f" font-size="14" font-weight="800" text-anchor="middle">Kanban shows the real flow: one Agent selector per phase, one Run Handoff action, and secondary exports.</text>
</svg>
