<svg width="1400" height="860" viewBox="0 0 1400 860" xmlns="http://www.w3.org/2000/svg" font-family="Segoe UI, Helvetica, system-ui, sans-serif">
  <defs>
    <linearGradient id="bg" x1="0" y1="0" x2="1" y2="1">
      <stop offset="0" stop-color="#070808"/>
      <stop offset="1" stop-color="#151817"/>
    </linearGradient>
    <filter id="shadow" x="-20%" y="-20%" width="140%" height="140%">
      <feDropShadow dx="0" dy="18" stdDeviation="24" flood-color="#000000" flood-opacity="0.38"/>
    </filter>
  </defs>

  <rect width="1400" height="860" rx="30" fill="url(#bg)"/>
  <rect x="24" y="24" width="1352" height="812" rx="24" fill="none" stroke="#27272a" stroke-width="2"/>

  <g filter="url(#shadow)">
    <rect x="62" y="58" width="1276" height="116" rx="10" fill="#111414" stroke="#27272a"/>
    <text x="94" y="96" fill="#6ee7b7" font-size="12" font-weight="700" letter-spacing="2.4">AGENT HANDOFFS</text>
    <text x="94" y="136" fill="#f4f4f5" font-size="32" font-weight="600">Pick Claude Code, then attach the right skill</text>
    <rect x="1122" y="84" width="172" height="40" rx="6" fill="#090a0a" stroke="#fb923c"/>
    <text x="1156" y="110" fill="#fed7aa" font-size="13" font-weight="650">Skill profile ready</text>
  </g>

  <g filter="url(#shadow)" transform="translate(62 216)">
    <rect width="510" height="548" rx="12" fill="#111414" stroke="#27272a"/>
    <text x="26" y="44" fill="#34d399" font-size="11" font-weight="700" letter-spacing="1.8">STAGE 02</text>
    <text x="26" y="82" fill="#f4f4f5" font-size="26" font-weight="600">Implement checkout orchestration</text>
    <text x="26" y="116" fill="#a1a1aa" font-size="15">Use the selected agent and skill for this phase.</text>

    <g transform="translate(26 158)">
      <text x="0" y="16" fill="#a1a1aa" font-size="12" font-weight="650" letter-spacing="1.4">AGENT</text>
      <rect x="0" y="28" width="458" height="54" rx="7" fill="#090a0a" stroke="#34d399"/>
      <rect x="14" y="42" width="28" height="28" rx="5" fill="#17251d" stroke="#34d399"/>
      <text x="23" y="62" fill="#a7f3d0" font-size="13" font-weight="650">C</text>
      <text x="56" y="62" fill="#f4f4f5" font-size="17" font-weight="650">Claude Code</text>
      <path d="M424 50 L438 50 L431 62 Z" fill="#a1a1aa"/>
    </g>

    <g transform="translate(26 264)">
      <text x="0" y="16" fill="#a1a1aa" font-size="12" font-weight="650" letter-spacing="1.4">SKILL / PROFILE</text>
      <rect x="0" y="28" width="458" height="54" rx="7" fill="#090a0a" stroke="#fb923c"/>
      <rect x="14" y="42" width="28" height="28" rx="5" fill="#2a1710" stroke="#fb923c"/>
      <text x="23" y="62" fill="#fed7aa" font-size="13" font-weight="650">S</text>
      <text x="56" y="62" fill="#f4f4f5" font-size="17" font-weight="650">implementation-plan</text>
      <path d="M424 50 L438 50 L431 62 Z" fill="#a1a1aa"/>
    </g>

    <g transform="translate(26 350)">
      <rect width="458" height="156" rx="8" fill="#0d0f0f" stroke="#3f3f46"/>
      <text x="18" y="34" fill="#a1a1aa" font-size="12" font-weight="650">AVAILABLE CLAUDE SKILLS</text>
      <rect x="18" y="52" width="422" height="30" rx="5" fill="#2a1710" stroke="#fb923c"/>
      <text x="34" y="72" fill="#fed7aa" font-size="13" font-weight="650">implementation-plan</text>
      <rect x="18" y="92" width="422" height="30" rx="5" fill="#090a0a" stroke="#27272a"/>
      <text x="34" y="112" fill="#a1a1aa" font-size="13">repo-risk-review</text>
      <rect x="18" y="132" width="422" height="30" rx="5" fill="#090a0a" stroke="#27272a"/>
      <text x="34" y="152" fill="#a1a1aa" font-size="13">release-checklist</text>
    </g>
  </g>

  <g filter="url(#shadow)" transform="translate(626 216)">
    <rect width="712" height="548" rx="12" fill="#111414" stroke="#27272a"/>
    <text x="30" y="44" fill="#34d399" font-size="11" font-weight="700" letter-spacing="1.8">HANDOFF PROMPT</text>
    <text x="30" y="80" fill="#f4f4f5" font-size="25" font-weight="600">DryLake injects the selected Claude skill</text>
    <text x="30" y="112" fill="#a1a1aa" font-size="15">The phase prompt keeps the work scoped and carries the chosen skill instructions.</text>

    <g transform="translate(30 150)">
      <rect width="652" height="286" rx="8" fill="#090a0a" stroke="#27272a"/>
      <text x="24" y="38" fill="#6ee7b7" font-size="13" font-weight="650">## Requested Skill / Agent Profile</text>
      <text x="24" y="76" fill="#f4f4f5" font-size="15">Use this Claude skill for this handoff.</text>
      <text x="24" y="116" fill="#a1a1aa" font-size="14">- Name: implementation-plan</text>
      <text x="24" y="148" fill="#a1a1aa" font-size="14">- Source: .claude/skills/implementation-plan/SKILL.md</text>
      <rect x="24" y="176" width="604" height="78" rx="6" fill="#0d0f0f" stroke="#3f3f46"/>
      <text x="44" y="206" fill="#f4f4f5" font-size="14">Plan first, confirm implementation scope, then edit.</text>
      <text x="44" y="234" fill="#a1a1aa" font-size="14">Keep each phase testable and easy to review.</text>
    </g>

    <g transform="translate(30 468)">
      <rect width="196" height="44" rx="6" fill="#34d399" stroke="#34d399"/>
      <text x="52" y="29" fill="#08110d" font-size="14" font-weight="650">Run Handoff</text>
      <rect x="216" y="0" width="156" height="44" rx="6" fill="#090a0a" stroke="#3f3f46"/>
      <text x="250" y="29" fill="#d4d4d8" font-size="14" font-weight="650">Copy prompt</text>
      <rect x="392" y="0" width="190" height="44" rx="6" fill="#090a0a" stroke="#3f3f46"/>
      <text x="430" y="29" fill="#d4d4d8" font-size="14" font-weight="650">Open Markdown</text>
    </g>
  </g>
</svg>
