<svg width="1400" height="860" viewBox="0 0 1400 860" xmlns="http://www.w3.org/2000/svg" font-family="Helvetica, Segoe UI, system-ui, sans-serif">
  <defs>
    <linearGradient id="bg" x1="0" y1="0" x2="1" y2="1">
      <stop offset="0" stop-color="#070808"/>
      <stop offset="1" stop-color="#111414"/>
    </linearGradient>
    <filter id="shadow" x="-20%" y="-20%" width="140%" height="140%">
      <feDropShadow dx="0" dy="20" stdDeviation="24" flood-color="#000000" flood-opacity="0.42"/>
    </filter>
    <path id="drylake-x" d="M90 76H184L256 174L328 76H422L308 240L430 436H336L256 314L176 436H82L204 240L90 76Z"/>
  </defs>

  <rect width="1400" height="860" rx="30" fill="url(#bg)"/>
  <rect x="24" y="24" width="1352" height="812" rx="24" fill="none" stroke="#27272a" stroke-width="2"/>

  <g opacity="0.07" transform="translate(770 128) scale(1.05)">
    <use href="#drylake-x" fill="#f7f4ea"/>
  </g>

  <g transform="translate(94 110)">
    <text x="0" y="0" fill="#6ee7b7" font-size="13" font-weight="700" letter-spacing="2.6">DRYLAKE DEMO</text>
    <text x="0" y="64" fill="#f4f4f5" font-size="56" font-weight="500">Visual planning for</text>
    <text x="0" y="128" fill="#f4f4f5" font-size="56" font-weight="500">AI coding agents</text>
    <text x="0" y="184" fill="#a1a1aa" font-size="24" font-weight="400">Plan stages, choose agents, attach skills, and run focused handoffs.</text>
  </g>

  <g filter="url(#shadow)" transform="translate(94 384)">
    <rect width="482" height="126" rx="12" fill="#111414" stroke="#27272a"/>
    <circle cx="66" cy="63" r="27" fill="#34d399" fill-opacity="0.16" stroke="#34d399" stroke-width="2"/>
    <path d="M58 47L58 79L86 63Z" fill="#34d399"/>
    <text x="116" y="54" fill="#f4f4f5" font-size="23" font-weight="600">Watch the product demo</text>
    <text x="116" y="88" fill="#a1a1aa" font-size="16" font-weight="400">1 minute walkthrough</text>
  </g>

  <g transform="translate(94 628)">
    <rect width="142" height="34" rx="17" fill="#17251d" stroke="#34d399"/>
    <circle cx="22" cy="17" r="5" fill="#34d399"/>
    <text x="38" y="22" fill="#a7f3d0" font-size="13" font-weight="650">Stages</text>
    <rect x="160" width="138" height="34" rx="17" fill="#2a1710" stroke="#fb923c"/>
    <circle cx="182" cy="17" r="5" fill="#fb923c"/>
    <text x="198" y="22" fill="#fed7aa" font-size="13" font-weight="650">Skills</text>
    <rect x="316" width="156" height="34" rx="17" fill="#111414" stroke="#3f3f46"/>
    <circle cx="338" cy="17" r="5" fill="#a1a1aa"/>
    <text x="354" y="22" fill="#d4d4d8" font-size="13" font-weight="650">Handoffs</text>
  </g>
</svg>
