<svg width="512" height="512" viewBox="0 0 512 512" fill="none" xmlns="http://www.w3.org/2000/svg">
  <rect width="512" height="512" fill="#1C0F06"/>
  <defs>
    <clipPath id="xClip">
      <path d="M116 72H183L256 178L329 72H396L293 222L405 440H337L256 309L175 440H107L219 222L116 72Z"/>
    </clipPath>
  </defs>
  <path d="M116 72H183L256 178L329 72H396L293 222L405 440H337L256 309L175 440H107L219 222L116 72Z" fill="#F4EAD8"/>
  <g clip-path="url(#xClip)" stroke="#26160D" stroke-width="4.5" stroke-linecap="round" stroke-linejoin="round">
    <path d="M171 74L165 127L195 164L187 203L220 222"/>
    <path d="M223 131L250 166L246 204L266 232"/>
    <path d="M301 104L285 132L300 158L289 186L305 212"/>
    <path d="M340 75L323 101L347 120L338 146L360 167"/>
    <path d="M371 89L358 116L382 132L368 155"/>
    <path d="M145 334L174 321L203 334L211 361L197 390"/>
    <path d="M206 278L236 276L255 291L251 318L226 327L203 334"/>
    <path d="M252 243L277 249L289 271L283 293L255 291L236 276"/>
    <path d="M286 200L313 208L326 232L316 254L289 271L277 249"/>
    <path d="M328 164L356 171L370 195L363 224L338 236L326 232L313 208"/>
    <path d="M202 391L227 402L221 438"/>
    <path d="M317 383L289 395L294 438"/>
    <path d="M338 236L350 273L335 304L307 312L283 293"/>
    <path d="M307 312L317 343L301 370L272 373L253 353L255 323L283 293"/>
    <path d="M255 323L253 353L229 366L211 361L203 334L226 327"/>
    <path d="M272 373L289 395L262 408L227 402L229 366L253 353"/>
    <path d="M301 370L317 383L337 376L340 344L317 343"/>
    <path d="M350 273L375 280L383 309L364 331L340 344L317 343L307 312L335 304"/>
    <path d="M364 331L379 352L372 383L337 376L340 344"/>
    <path d="M135 274L162 287L164 313L145 334L119 333"/>
    <path d="M162 287L186 264L206 278L203 334L174 321L164 313"/>
    <path d="M186 264L195 237L223 239L252 243L236 276L206 278"/>
    <path d="M223 239L222 222L246 204L286 200L252 243"/>
    <path d="M270 175L286 200L246 204L250 166"/>
    <path d="M270 175L289 186L301 158L327 159L328 164L286 200"/>
    <path d="M327 159L338 146L360 167L356 171L328 164"/>
    <path d="M300 158L285 132L259 133L250 166L270 175"/>
    <path d="M259 133L223 131L246 104L285 132"/>
    <path d="M246 104L223 131L195 164L165 127L171 74"/>
    <path d="M246 104L301 104L323 101L340 75"/>
    <path d="M259 133L250 166L246 204L222 222"/>
    <path d="M222 222L223 239L195 237L173 225L187 203L220 222"/>
    <path d="M173 225L157 247L135 274L186 264L195 237"/>
    <path d="M119 333L107 374"/>
    <path d="M372 383L405 440"/>
    <path d="M197 390L175 440"/>
    <path d="M262 408L256 309"/>
    <path d="M289 395L256 309"/>
    <path d="M227 402L256 309"/>
    <path d="M379 352L405 440"/>
    <path d="M383 309L405 300"/>
    <path d="M119 333L107 310"/>
    <path d="M157 247L116 210"/>
    <path d="M370 195L396 162"/>
  </g>
</svg>
