<svg width="512" height="512" viewBox="0 0 512 512" fill="none" xmlns="http://www.w3.org/2000/svg" role="img" aria-label="DryLake cracked X logo">
  <defs>
    <path id="drylake-x" d="M90 76H184L256 174L328 76H422L308 240L430 436H336L256 314L176 436H82L204 240L90 76Z"/>
    <clipPath id="x-clip">
      <use href="#drylake-x"/>
    </clipPath>
  </defs>
  <rect x="18" y="18" width="476" height="476" rx="38" fill="#090a0a" stroke="#27272a" stroke-width="18"/>
  <use href="#drylake-x" fill="#f7f4ea" stroke="#090a0a" stroke-width="18" stroke-linejoin="round"/>
  <g clip-path="url(#x-clip)" stroke="#090a0a" stroke-width="8" stroke-linecap="round" stroke-linejoin="round">
    <path d="M151 90L164 132L146 172L178 214L166 258"/>
    <path d="M204 86L218 124L206 160L232 198L220 242"/>
    <path d="M300 86L286 126L306 164L282 205L294 246"/>
    <path d="M358 90L338 132L354 170L326 216L338 258"/>
    <path d="M212 244L250 258L284 244"/>
    <path d="M176 292L212 306L236 292L260 316L296 300L336 316"/>
    <path d="M136 388L180 366L220 386L256 362L294 386L334 366L378 388"/>
    <path d="M256 174L246 220L256 256L244 306L256 314"/>
    <path d="M104 430L142 406L176 436"/>
    <path d="M408 430L370 406L336 436"/>
  </g>
</svg>
